<svg width="436" height="436" viewBox="0 0 436 436" fill="none" xmlns="http://www.w3.org/2000/svg">
<path d="M435.399 114.822C435.399 51.472 383.969 0 320.785 0H11.6423C5.19947 0 0 5.20376 0 11.6519V424.106C0 430.554 5.19947 435.758 11.6423 435.758C11.7553 435.758 11.7553 435.758 11.8683 435.758H320.671C383.969 435.758 435.399 384.286 435.399 320.936C435.399 275.686 409.175 236.545 371.084 217.879C409.175 199.213 435.399 159.959 435.399 114.822ZM23.3976 23.4169H251.496C223.916 44.3451 206.057 77.6039 206.057 114.822C206.057 152.04 223.916 185.299 251.496 206.227H23.3976V23.4169ZM412.114 321.049C412.114 371.39 371.197 412.341 321.011 412.454H23.3976V229.644H320.785C371.084 229.644 412.114 270.595 412.114 321.049ZM320.785 206.227C270.372 206.227 229.455 165.276 229.455 114.822C229.455 64.3682 270.372 23.4169 320.785 23.4169C371.197 23.4169 412.114 64.3682 412.114 114.822C412.114 165.276 371.197 206.227 320.785 206.227Z" fill="white"/>
</svg>

